<svg width="1177" height="585" viewBox="0 0 1177 585" fill="none" xmlns="http://www.w3.org/2000/svg">
<g clip-path="url(#clip0_542_8150)">
<path d="M708.724 589.58V631.587L672.345 652.59L635.966 631.587V589.58L672.345 568.576L708.724 589.58Z" stroke="#FADF85" stroke-width="5.65931"/>
<path d="M792.801 589.58V631.587L756.422 652.59L720.043 631.587V589.58L756.422 568.576L792.801 589.58Z" stroke="#FADF85" stroke-width="5.65931"/>
<path d="M876.878 589.58V631.587L840.499 652.59L804.12 631.587V589.58L840.499 568.576L876.878 589.58Z" stroke="#FADF85" stroke-width="5.65931"/>
<path d="M960.954 589.58V631.587L924.576 652.59L888.197 631.587V589.58L924.576 568.576L960.954 589.58Z" stroke="#FADF85" stroke-width="5.65931"/>
<path d="M1045.03 589.58V631.587L1008.65 652.59L972.274 631.587V589.58L1008.65 568.576L1045.03 589.58Z" stroke="#FADF85" stroke-width="5.65931"/>
<path d="M1129.11 589.58V631.587L1092.73 652.59L1056.35 631.587V589.58L1092.73 568.576L1129.11 589.58Z" stroke="#FADF85" stroke-width="5.65931"/>
<path d="M1213.19 589.58V631.587L1176.81 652.59L1140.43 631.587V589.58L1176.81 568.576L1213.19 589.58Z" stroke="#FADF85" stroke-width="5.65931"/>
<path d="M120.156 589.58V631.587L83.7769 652.59L47.3979 631.587V589.58L83.7769 568.576L120.156 589.58Z" stroke="#FADF85" stroke-width="5.65931"/>
<path d="M204.233 589.58V631.587L167.854 652.59L131.475 631.587V589.58L167.854 568.576L204.233 589.58Z" stroke="#FADF85" stroke-width="5.65931"/>
<path d="M288.31 589.58V631.587L251.931 652.59L215.552 631.587V589.58L251.931 568.576L288.31 589.58Z" stroke="#FADF85" stroke-width="5.65931"/>
<path d="M372.387 589.58V631.587L336.008 652.59L299.629 631.587V589.58L336.008 568.576L372.387 589.58Z" stroke="#FADF85" stroke-width="5.65931"/>
<path d="M456.464 589.58V631.587L420.085 652.59L383.706 631.587V589.58L420.085 568.576L456.464 589.58Z" stroke="#FADF85" stroke-width="5.65931"/>
<path d="M540.541 589.58V631.587L504.162 652.59L467.783 631.587V589.58L504.162 568.576L540.541 589.58Z" stroke="#FADF85" stroke-width="5.65931"/>
<path d="M624.618 589.58V631.587L588.239 652.59L551.86 631.587V589.58L588.239 568.576L624.618 589.58Z" stroke="#FADF85" stroke-width="5.65931"/>
<path d="M36.0497 589.58V631.587L-0.329224 652.59L-36.7081 631.587V589.58L-0.329224 568.576L36.0497 589.58Z" stroke="#FADF85" stroke-width="5.65931"/>
<path d="M751.168 371.696V413.703L714.79 434.707L678.411 413.703V371.696L714.79 350.693L751.168 371.696Z" stroke="#FADF85" stroke-width="5.65931"/>
<path d="M835.245 371.696V413.703L798.866 434.707L762.488 413.703V371.696L798.866 350.693L835.245 371.696Z" stroke="#FADF85" stroke-width="5.65931"/>
<path d="M919.322 371.696V413.703L882.943 434.707L846.565 413.703V371.696L882.943 350.693L919.322 371.696Z" stroke="#FADF85" stroke-width="5.65931"/>
<path d="M1003.4 371.696V413.703L967.02 434.707L930.641 413.703V371.696L967.02 350.693L1003.4 371.696Z" stroke="#FADF85" stroke-width="5.65931"/>
<path d="M1087.48 371.696V413.703L1051.1 434.707L1014.72 413.703V371.696L1051.1 350.693L1087.48 371.696Z" stroke="#FADF85" stroke-width="5.65931"/>
<path d="M1171.55 371.696V413.703L1135.17 434.707L1098.8 413.703V371.696L1135.17 350.693L1171.55 371.696Z" stroke="#FADF85" stroke-width="5.65931"/>
<path d="M877.285 445.267V487.274L840.906 508.278L804.528 487.274V445.267L840.906 424.263L877.285 445.267Z" stroke="#FADF85" stroke-width="5.65931"/>
<path d="M961.362 445.267V487.274L924.984 508.278L888.605 487.274V445.267L924.984 424.263L961.362 445.267Z" stroke="#FADF85" stroke-width="5.65931"/>
<path d="M1045.44 445.267V487.274L1009.06 508.278L972.682 487.274V445.267L1009.06 424.263L1045.44 445.267Z" stroke="#FADF85" stroke-width="5.65931"/>
<path d="M1129.52 445.267V487.274L1093.14 508.278L1056.76 487.274V445.267L1093.14 424.263L1129.52 445.267Z" stroke="#FADF85" stroke-width="5.65931"/>
<path d="M1213.59 445.267V487.274L1177.21 508.278L1140.84 487.274V445.267L1177.21 424.263L1213.59 445.267Z" stroke="#FADF85" stroke-width="5.65931"/>
<path d="M751.168 518.838V560.845L714.79 581.849L678.411 560.845V518.838L714.79 497.834L751.168 518.838Z" stroke="#FADF85" stroke-width="5.65931"/>
<path d="M835.245 518.838V560.845L798.866 581.849L762.488 560.845V518.838L798.866 497.834L835.245 518.838Z" stroke="#FADF85" stroke-width="5.65931"/>
<path fill-rule="evenodd" clip-rule="evenodd" d="M849.394 475.073V513.939L882.946 494.568L922.155 517.205V562.48L882.946 585.117L843.737 562.48L843.734 471.804L849.394 475.073ZM849.397 520.471V559.211L882.946 578.579L916.496 559.211V520.471L882.946 501.103L849.397 520.471Z" fill="#FADF85"/>
<path d="M1006.23 517.205V520.452L974.125 538.991L974.131 539.002L968.438 542.293L965.609 537.391L997.743 518.835L967.023 501.103L933.474 520.471V559.211L967.023 578.579L1000.57 559.211L1006.23 562.48L967.023 585.117L927.814 562.48V517.205L967.023 494.568L1006.23 517.205Z" fill="#FADF85"/>
<path d="M1090.31 517.205V520.452L1058.2 538.991L1058.21 539.002L1052.52 542.293L1049.69 537.391L1081.82 518.835L1051.1 501.103L1017.55 520.471V559.211L1051.1 578.579L1084.65 559.211L1090.31 562.48L1051.1 585.117L1011.89 562.48V517.205L1051.1 494.568L1090.31 517.205Z" fill="#FADF85"/>
<path d="M1174.39 517.205V520.466L1104.45 560.844L1135.18 578.579L1174.39 555.942V562.48L1135.18 585.117L1095.97 562.48V559.216L1148.57 528.847L1148.57 528.839L1165.9 518.835L1135.18 501.103L1101.63 520.471V520.513L1095.97 523.779V517.205L1135.18 494.568L1174.39 517.205Z" fill="#FADF85"/>
<path d="M162.601 371.696V413.703L126.222 434.707L89.8428 413.703V371.696L126.222 350.693L162.601 371.696Z" stroke="#FADF85" stroke-width="5.65931"/>
<path d="M246.677 371.696V413.703L210.299 434.707L173.92 413.703V371.696L210.299 350.693L246.677 371.696Z" stroke="#FADF85" stroke-width="5.65931"/>
<path d="M330.755 371.696V413.703L294.376 434.707L257.997 413.703V371.696L294.376 350.693L330.755 371.696Z" stroke="#FADF85" stroke-width="5.65931"/>
<path d="M414.831 371.696V413.703L378.453 434.707L342.074 413.703V371.696L378.453 350.693L414.831 371.696Z" stroke="#FADF85" stroke-width="5.65931"/>
<path d="M498.908 371.696V413.703L462.53 434.707L426.151 413.703V371.696L462.53 350.693L498.908 371.696Z" stroke="#FADF85" stroke-width="5.65931"/>
<path d="M582.985 371.696V413.703L546.606 434.707L510.228 413.703V371.696L546.606 350.693L582.985 371.696Z" stroke="#FADF85" stroke-width="5.65931"/>
<path d="M667.062 371.696V413.703L630.683 434.707L594.305 413.703V371.696L630.683 350.693L667.062 371.696Z" stroke="#FADF85" stroke-width="5.65931"/>
<path d="M204.641 445.267V487.274L168.262 508.278L131.883 487.274V445.267L168.262 424.263L204.641 445.267Z" stroke="#FADF85" stroke-width="5.65931"/>
<path d="M288.718 445.267V487.274L252.339 508.278L215.96 487.274V445.267L252.339 424.263L288.718 445.267Z" stroke="#FADF85" stroke-width="5.65931"/>
<path d="M372.795 445.267V487.274L336.416 508.278L300.037 487.274V445.267L336.416 424.263L372.795 445.267Z" stroke="#FADF85" stroke-width="5.65931"/>
<path fill-rule="evenodd" clip-rule="evenodd" d="M386.943 401.502V440.368L420.495 420.997L459.704 443.634V488.909L420.495 511.546L381.286 488.909L381.284 398.233L386.943 401.502ZM386.946 446.9V485.64L420.495 505.008L454.045 485.64V446.9L420.495 427.532L386.946 446.9Z" fill="#FADF85"/>
<path d="M543.782 443.634V446.881L511.674 465.42L511.68 465.431L505.987 468.722L503.158 463.82L535.293 445.264L504.573 427.532L471.023 446.9V485.64L504.573 505.008L538.119 485.64L543.782 488.909L504.573 511.546L465.364 488.909V443.634L504.573 420.997L543.782 443.634Z" fill="#FADF85"/>
<path d="M627.859 443.634V446.881L595.751 465.42L595.757 465.431L590.065 468.722L587.235 463.82L619.37 445.264L588.65 427.532L555.1 446.9V485.64L588.65 505.008L622.197 485.64L627.859 488.909L588.65 511.546L549.441 488.909V443.634L588.65 420.997L627.859 443.634Z" fill="#FADF85"/>
<path d="M711.936 443.634V446.895L642.004 487.273L672.727 505.008L711.936 482.371V488.909L672.727 511.546L633.518 488.909V485.645L686.121 455.276L686.115 455.268L703.447 445.264L672.727 427.532L639.177 446.9V446.942L633.518 450.208V443.634L672.727 420.997L711.936 443.634Z" fill="#FADF85"/>
<path d="M796.013 488.909L756.804 511.546L717.595 488.909V443.653L723.255 446.922V485.64L756.804 505.008L790.354 485.64V446.917L796.013 443.648V488.909Z" fill="#FADF85"/>
<path d="M162.601 518.838V560.845L126.222 581.849L89.8428 560.845V518.838L126.222 497.834L162.601 518.838Z" stroke="#FADF85" stroke-width="5.65931"/>
<path d="M246.677 518.838V560.845L210.299 581.849L173.92 560.845V518.838L210.299 497.834L246.677 518.838Z" stroke="#FADF85" stroke-width="5.65931"/>
<path d="M330.755 518.838V560.845L294.376 581.849L257.997 560.845V518.838L294.376 497.834L330.755 518.838Z" stroke="#FADF85" stroke-width="5.65931"/>
<path d="M414.832 518.838V560.845L378.453 581.849L342.074 560.845V518.838L378.453 497.834L414.832 518.838Z" stroke="#FADF85" stroke-width="5.65931"/>
<path d="M498.908 518.838V560.845L462.53 581.849L426.151 560.845V518.838L462.53 497.834L498.908 518.838Z" stroke="#FADF85" stroke-width="5.65931"/>
<path d="M582.985 518.838V560.845L546.606 581.849L510.228 560.845V518.838L546.606 497.834L582.985 518.838Z" stroke="#FADF85" stroke-width="5.65931"/>
<path d="M667.062 518.838V560.845L630.683 581.849L594.305 560.845V518.838L630.683 497.834L667.062 518.838Z" stroke="#FADF85" stroke-width="5.65931"/>
<path d="M78.4944 371.696V413.703L42.1155 434.707L5.73663 413.703V371.696L42.1155 350.693L78.4944 371.696Z" stroke="#FADF85" stroke-width="5.65931"/>
<path d="M36.4575 445.267V487.274L0.0786133 508.278L-36.3003 487.274V445.267L0.0786133 424.263L36.4575 445.267Z" stroke="#FADF85" stroke-width="5.65931"/>
<path d="M120.535 445.267V487.274L84.1556 508.278L47.7767 487.274V445.267L84.1556 424.263L120.535 445.267Z" stroke="#FADF85" stroke-width="5.65931"/>
<path d="M81.3281 562.48L42.1192 585.117L2.91022 562.48V517.224L8.56952 520.493V559.211L42.1192 578.579L75.6688 559.211V520.488L81.3281 517.219V562.48Z" fill="#FADF85"/>
<path d="M709.102 150.983V192.99L672.723 213.994L636.344 192.99V150.983L672.723 129.98L709.102 150.983Z" stroke="#FADF85" stroke-width="5.65931"/>
<path d="M793.179 150.983V192.99L756.8 213.994L720.421 192.99V150.983L756.8 129.98L793.179 150.983Z" stroke="#FADF85" stroke-width="5.65931"/>
<path d="M877.256 150.983V192.99L840.877 213.994L804.498 192.99V150.983L840.877 129.98L877.256 150.983Z" stroke="#FADF85" stroke-width="5.65931"/>
<path d="M961.333 150.983V192.99L924.954 213.994L888.575 192.99V150.983L924.954 129.98L961.333 150.983Z" stroke="#FADF85" stroke-width="5.65931"/>
<path d="M1045.41 150.983V192.99L1009.03 213.994L972.652 192.99V150.983L1009.03 129.98L1045.41 150.983Z" stroke="#FADF85" stroke-width="5.65931"/>
<path d="M1129.49 150.983V192.99L1093.11 213.994L1056.73 192.99V150.983L1093.11 129.98L1129.49 150.983Z" stroke="#FADF85" stroke-width="5.65931"/>
<path d="M1213.56 150.983V192.99L1177.19 213.994L1140.81 192.99V150.983L1177.19 129.98L1213.56 150.983Z" stroke="#FADF85" stroke-width="5.65931"/>
<path d="M751.142 224.554V266.561L714.763 287.565L678.384 266.561V224.554L714.763 203.551L751.142 224.554Z" stroke="#FADF85" stroke-width="5.65931"/>
<path d="M835.219 224.554V266.561L798.84 287.565L762.461 266.561V224.554L798.84 203.551L835.219 224.554Z" stroke="#FADF85" stroke-width="5.65931"/>
<path d="M919.296 224.554V266.561L882.917 287.565L846.538 266.561V224.554L882.917 203.551L919.296 224.554Z" stroke="#FADF85" stroke-width="5.65931"/>
<path d="M1003.37 224.554V266.561L966.994 287.565L930.615 266.561V224.554L966.994 203.551L1003.37 224.554Z" stroke="#FADF85" stroke-width="5.65931"/>
<path d="M1087.45 224.554V266.561L1051.07 287.565L1014.69 266.561V224.554L1051.07 203.551L1087.45 224.554Z" stroke="#FADF85" stroke-width="5.65931"/>
<path d="M1171.53 224.554V266.561L1135.15 287.565L1098.77 266.561V224.554L1135.15 203.551L1171.53 224.554Z" stroke="#FADF85" stroke-width="5.65931"/>
<path d="M709.102 298.125V340.132L672.723 361.136L636.344 340.132V298.125L672.723 277.122L709.102 298.125Z" stroke="#FADF85" stroke-width="5.65931"/>
<path d="M793.179 298.125V340.132L756.8 361.136L720.421 340.132V298.125L756.8 277.122L793.179 298.125Z" stroke="#FADF85" stroke-width="5.65931"/>
<path fill-rule="evenodd" clip-rule="evenodd" d="M807.328 254.36V293.226L840.88 273.855L880.089 296.492V341.767L840.88 364.404L801.671 341.767L801.668 251.091L807.328 254.36ZM807.33 299.758V338.498L840.88 357.866L874.43 338.498V299.758L840.88 280.39L807.33 299.758Z" fill="#FADF85"/>
<path d="M964.166 296.492V299.739L932.059 318.278L932.064 318.289L926.372 321.58L923.542 316.678L955.677 298.123L924.957 280.39L891.407 299.758V338.498L924.957 357.866L958.504 338.498L964.166 341.767L924.957 364.404L885.748 341.767V296.492L924.957 273.855L964.166 296.492Z" fill="#FADF85"/>
<path d="M1048.24 296.492V299.739L1016.14 318.278L1016.14 318.289L1010.45 321.58L1007.62 316.678L1039.75 298.123L1009.03 280.39L975.485 299.758V338.498L1009.03 357.866L1042.58 338.498L1048.24 341.767L1009.03 364.404L969.825 341.767V296.492L1009.03 273.855L1048.24 296.492Z" fill="#FADF85"/>
<path d="M1132.32 296.492V299.753L1062.39 340.131L1093.11 357.866L1132.32 335.229V341.767L1093.11 364.404L1053.9 341.767V338.503L1106.51 308.134L1106.5 308.126L1123.83 298.123L1093.11 280.39L1059.56 299.758V299.8L1053.9 303.066V296.492L1093.11 273.855L1132.32 296.492Z" fill="#FADF85"/>
<path d="M1216.4 341.767L1177.19 364.404L1137.98 341.767V296.511L1143.64 299.781V338.498L1177.19 357.866L1210.74 338.498V299.775L1216.4 296.506V341.767Z" fill="#FADF85"/>
<path d="M120.156 150.983V192.99L83.7769 213.994L47.3979 192.99V150.983L83.7769 129.98L120.156 150.983Z" stroke="#FADF85" stroke-width="5.65931"/>
<path d="M204.233 150.983V192.99L167.854 213.994L131.475 192.99V150.983L167.854 129.98L204.233 150.983Z" stroke="#FADF85" stroke-width="5.65931"/>
<path d="M288.31 150.983V192.99L251.931 213.994L215.552 192.99V150.983L251.931 129.98L288.31 150.983Z" stroke="#FADF85" stroke-width="5.65931"/>
<path d="M372.387 150.983V192.99L336.008 213.994L299.629 192.99V150.983L336.008 129.98L372.387 150.983Z" stroke="#FADF85" stroke-width="5.65931"/>
<path d="M456.464 150.983V192.99L420.085 213.994L383.706 192.99V150.983L420.085 129.98L456.464 150.983Z" stroke="#FADF85" stroke-width="5.65931"/>
<path d="M540.541 150.983V192.99L504.162 213.994L467.783 192.99V150.983L504.162 129.98L540.541 150.983Z" stroke="#FADF85" stroke-width="5.65931"/>
<path d="M624.618 150.983V192.99L588.239 213.994L551.86 192.99V150.983L588.239 129.98L624.618 150.983Z" stroke="#FADF85" stroke-width="5.65931"/>
<path d="M162.196 224.554V266.561L125.817 287.565L89.438 266.561V224.554L125.817 203.551L162.196 224.554Z" stroke="#FADF85" stroke-width="5.65931"/>
<path d="M246.273 224.554V266.561L209.894 287.565L173.515 266.561V224.554L209.894 203.551L246.273 224.554Z" stroke="#FADF85" stroke-width="5.65931"/>
<path d="M330.35 224.554V266.561L293.971 287.565L257.592 266.561V224.554L293.971 203.551L330.35 224.554Z" stroke="#FADF85" stroke-width="5.65931"/>
<path d="M414.427 224.554V266.561L378.048 287.565L341.669 266.561V224.554L378.048 203.551L414.427 224.554Z" stroke="#FADF85" stroke-width="5.65931"/>
<path d="M498.504 224.554V266.561L462.125 287.565L425.746 266.561V224.554L462.125 203.551L498.504 224.554Z" stroke="#FADF85" stroke-width="5.65931"/>
<path d="M582.581 224.554V266.561L546.202 287.565L509.823 266.561V224.554L546.202 203.551L582.581 224.554Z" stroke="#FADF85" stroke-width="5.65931"/>
<path d="M666.658 224.554V266.561L630.279 287.565L593.9 266.561V224.554L630.279 203.551L666.658 224.554Z" stroke="#FADF85" stroke-width="5.65931"/>
<path d="M120.156 298.125V340.132L83.7769 361.136L47.3979 340.132V298.125L83.7769 277.122L120.156 298.125Z" stroke="#FADF85" stroke-width="5.65931"/>
<path d="M204.233 298.125V340.132L167.854 361.136L131.475 340.132V298.125L167.854 277.122L204.233 298.125Z" stroke="#FADF85" stroke-width="5.65931"/>
<path fill-rule="evenodd" clip-rule="evenodd" d="M218.381 254.36V293.226L251.933 273.855L291.142 296.492V341.767L251.933 364.404L212.725 341.767L212.722 251.091L218.381 254.36ZM218.384 299.758V338.498L251.933 357.866L285.483 338.498V299.758L251.933 280.39L218.384 299.758Z" fill="#FADF85"/>
<path d="M375.22 296.492V299.739L343.112 318.278L343.118 318.289L337.426 321.58L334.596 316.678L366.731 298.123L336.011 280.39L302.461 299.758V338.498L336.011 357.866L369.558 338.498L375.22 341.767L336.011 364.404L296.802 341.767V296.492L336.011 273.855L375.22 296.492Z" fill="#FADF85"/>
<path d="M459.297 296.492V299.739L427.19 318.278L427.195 318.289L421.503 321.58L418.673 316.678L450.808 298.123L420.088 280.39L386.538 299.758V338.498L420.088 357.866L453.635 338.498L459.297 341.767L420.088 364.404L380.879 341.767V296.492L420.088 273.855L459.297 296.492Z" fill="#FADF85"/>
<path d="M543.374 296.492V299.753L473.442 340.131L504.165 357.866L543.374 335.229V341.767L504.165 364.404L464.956 341.767V338.503L517.559 308.134L517.553 308.126L534.885 298.123L504.165 280.39L470.615 299.758V299.8L464.956 303.066V296.492L504.165 273.855L543.374 296.492Z" fill="#FADF85"/>
<path d="M627.451 341.767L588.242 364.404L549.033 341.767V296.511L554.693 299.781V338.498L588.242 357.866L621.792 338.498V299.775L627.451 296.506V341.767Z" fill="#FADF85"/>
<path d="M36.0497 150.983V192.99L-0.329224 213.994L-36.7081 192.99V150.983L-0.329224 129.98L36.0497 150.983Z" stroke="#FADF85" stroke-width="5.65931"/>
<path d="M78.0897 224.554V266.561L41.7108 287.565L5.33191 266.561V224.554L41.7108 203.551L78.0897 224.554Z" stroke="#FADF85" stroke-width="5.65931"/>
<path d="M38.8833 341.767L-0.325671 364.404L-39.5346 341.767V296.511L-33.8753 299.781V338.498L-0.325671 357.866L33.224 338.498V299.775L38.8833 296.506V341.767Z" fill="#FADF85"/>
<path d="M793.208 3.84149V45.8483L756.83 66.8522L720.451 45.8483V3.84149L756.83 -17.1624L793.208 3.84149Z" stroke="#FADF85" stroke-width="5.65931"/>
<path d="M877.285 3.84149V45.8483L840.906 66.8522L804.528 45.8483V3.84149L840.906 -17.1624L877.285 3.84149Z" stroke="#FADF85" stroke-width="5.65931"/>
<path d="M961.362 3.84149V45.8483L924.984 66.8522L888.605 45.8483V3.84149L924.984 -17.1624L961.362 3.84149Z" stroke="#FADF85" stroke-width="5.65931"/>
<path d="M1045.44 3.84149V45.8483L1009.06 66.8522L972.682 45.8483V3.84149L1009.06 -17.1624L1045.44 3.84149Z" stroke="#FADF85" stroke-width="5.65931"/>
<path d="M1129.52 3.84149V45.8483L1093.14 66.8522L1056.76 45.8483V3.84149L1093.14 -17.1624L1129.52 3.84149Z" stroke="#FADF85" stroke-width="5.65931"/>
<path d="M1213.59 3.84149V45.8483L1177.21 66.8522L1140.84 45.8483V3.84149L1177.21 -17.1624L1213.59 3.84149Z" stroke="#FADF85" stroke-width="5.65931"/>
<path d="M751.168 77.4125V119.419L714.79 140.423L678.411 119.419V77.4125L714.79 56.4086L751.168 77.4125Z" stroke="#FADF85" stroke-width="5.65931"/>
<path d="M835.245 77.4125V119.419L798.866 140.423L762.488 119.419V77.4125L798.866 56.4086L835.245 77.4125Z" stroke="#FADF85" stroke-width="5.65931"/>
<path d="M919.322 77.4125V119.419L882.943 140.423L846.565 119.419V77.4125L882.943 56.4086L919.322 77.4125Z" stroke="#FADF85" stroke-width="5.65931"/>
<path d="M1003.4 77.4125V119.419L967.021 140.423L930.642 119.419V77.4125L967.021 56.4086L1003.4 77.4125Z" stroke="#FADF85" stroke-width="5.65931"/>
<path d="M1087.48 77.4125V119.419L1051.1 140.423L1014.72 119.419V77.4125L1051.1 56.4086L1087.48 77.4125Z" stroke="#FADF85" stroke-width="5.65931"/>
<path d="M1171.55 77.4125V119.419L1135.17 140.423L1098.8 119.419V77.4125L1135.17 56.4086L1171.55 77.4125Z" stroke="#FADF85" stroke-width="5.65931"/>
<path d="M204.641 3.84149V45.8483L168.262 66.8522L131.883 45.8483V3.84149L168.262 -17.1624L204.641 3.84149Z" stroke="#FADF85" stroke-width="5.65931"/>
<path d="M288.718 3.84149V45.8483L252.339 66.8522L215.96 45.8483V3.84149L252.339 -17.1624L288.718 3.84149Z" stroke="#FADF85" stroke-width="5.65931"/>
<path d="M372.795 3.84149V45.8483L336.416 66.8522L300.037 45.8483V3.84149L336.416 -17.1624L372.795 3.84149Z" stroke="#FADF85" stroke-width="5.65931"/>
<path d="M456.871 3.84149V45.8483L420.493 66.8522L384.114 45.8483V3.84149L420.493 -17.1624L456.871 3.84149Z" stroke="#FADF85" stroke-width="5.65931"/>
<path d="M540.948 3.84149V45.8483L504.57 66.8522L468.191 45.8483V3.84149L504.57 -17.1624L540.948 3.84149Z" stroke="#FADF85" stroke-width="5.65931"/>
<path d="M625.025 3.84149V45.8483L588.646 66.8522L552.268 45.8483V3.84149L588.646 -17.1624L625.025 3.84149Z" stroke="#FADF85" stroke-width="5.65931"/>
<path d="M709.102 3.84149V45.8483L672.724 66.8522L636.345 45.8483V3.84149L672.724 -17.1624L709.102 3.84149Z" stroke="#FADF85" stroke-width="5.65931"/>
<path d="M162.601 77.4125V119.419L126.222 140.423L89.8428 119.419V77.4125L126.222 56.4086L162.601 77.4125Z" stroke="#FADF85" stroke-width="5.65931"/>
<path d="M246.677 77.4125V119.419L210.299 140.423L173.92 119.419V77.4125L210.299 56.4086L246.677 77.4125Z" stroke="#FADF85" stroke-width="5.65931"/>
<path fill-rule="evenodd" clip-rule="evenodd" d="M260.826 33.6466V72.5129L294.378 53.142L333.587 75.7792V121.054L294.378 143.691L255.169 121.054L255.167 30.3776L260.826 33.6466ZM260.829 79.0454V117.785L294.378 137.153L327.928 117.785V79.0454L294.378 59.6772L260.829 79.0454Z" fill="#FADF85"/>
<path d="M417.664 75.7792V79.0261L385.557 97.5653L385.563 97.5764L379.87 100.867L377.041 95.9653L409.175 77.4096L378.456 59.6773L344.906 79.0455V117.785L378.456 137.153L412.002 117.785L417.664 121.054L378.456 143.691L339.247 121.054V75.7792L378.456 53.142L417.664 75.7792Z" fill="#FADF85"/>
<path d="M501.742 75.7792V79.0261L469.634 97.5653L469.64 97.5764L463.947 100.867L461.118 95.9653L493.253 77.4096L462.533 59.6773L428.983 79.0455V117.785L462.533 137.153L496.08 117.785L501.742 121.054L462.533 143.691L423.324 121.054V75.7792L462.533 53.142L501.742 75.7792Z" fill="#FADF85"/>
<path d="M585.819 75.7792V79.0399L515.887 119.418L546.61 137.153L585.819 114.516V121.054L546.61 143.691L507.401 121.054V117.79L560.004 87.4211L559.998 87.4128L577.33 77.4096L546.61 59.6773L513.06 79.0455V79.0869L507.401 82.3532V75.7792L546.61 53.142L585.819 75.7792Z" fill="#FADF85"/>
<path d="M669.896 121.054L630.687 143.691L591.478 121.054V75.7986L597.137 79.0676V117.785L630.687 137.153L664.237 117.785V79.0621L669.896 75.793V121.054Z" fill="#FADF85"/>
<path d="M36.4575 3.84149V45.8483L0.0786133 66.8522L-36.3003 45.8483V3.84149L0.0786133 -17.1624L36.4575 3.84149Z" stroke="#FADF85" stroke-width="5.65931"/>
<path d="M120.535 3.84149V45.8483L84.1556 66.8522L47.7767 45.8483V3.84149L84.1556 -17.1624L120.535 3.84149Z" stroke="#FADF85" stroke-width="5.65931"/>
<path d="M81.3281 121.054L42.1192 143.691L2.91022 121.054V75.7986L8.56952 79.0676V117.785L42.1192 137.153L75.6688 117.785V79.0621L81.3281 75.793V121.054Z" fill="#FADF85"/>
</g>
<defs>
<clipPath id="clip0_542_8150">
<rect width="1177" height="585" fill="white"/>
</clipPath>
</defs>
</svg>
