<svg width="25" height="25" viewBox="0 0 25 25" fill="none" xmlns="http://www.w3.org/2000/svg">
<path d="M17.75 2V6.66667M7.25 2V6.66667M2 11.3333H23M5.9375 14.8333H5.95456M9.88814 14.8333H9.8947M13.8256 14.8333H13.8322M17.7697 14.8333H17.7763M13.8322 18.3333H13.8388M5.95064 18.3333H5.9572M9.88814 18.3333H9.8947M2 6.66667C2 6.04783 2.27656 5.45434 2.76884 5.01675C3.26113 4.57917 3.92881 4.33333 4.625 4.33333H20.375C21.0712 4.33333 21.7389 4.57917 22.2312 5.01675C22.7234 5.45434 23 6.04783 23 6.66667V20.6667C23 21.2855 22.7234 21.879 22.2312 22.3166C21.7389 22.7542 21.0712 23 20.375 23H4.625C3.92881 23 3.26113 22.7542 2.76884 22.3166C2.27656 21.879 2 21.2855 2 20.6667V6.66667Z" stroke="#49290C" stroke-width="2" stroke-linecap="round" stroke-linejoin="round"/>
</svg>
