<svg width="100" height="100" viewBox="0 0 100 100" fill="none" xmlns="http://www.w3.org/2000/svg">
<path d="M50 4C24.636 4 4 24.634 4 50C4 75.366 24.636 96 50 96C75.364 96 96 75.366 96 50C96 24.634 75.364 4 50 4ZM30.2344 34.1641C33.1824 34.1641 35.3834 36.273 35.6914 38.793C35.9694 41.063 35.061 43.0269 32.543 44.2969C31.259 44.9489 30.6219 44.9155 30.4219 44.6055C30.2879 44.3975 30.3631 44.0499 30.6211 43.8359C32.9891 41.8579 33.0319 40.2333 32.7539 37.9453C32.5739 36.4733 31.6055 35.5312 30.5195 35.5312C25.8655 35.5312 19.1892 45.9685 20.1172 53.5625C20.4792 56.5225 22.2975 59.9492 26.0195 59.9492C27.2595 59.9492 28.5722 59.5996 29.7422 59.0156C31.7842 57.9716 32.9416 57.1469 34.1016 55.7969C33.8156 52.2849 36.8285 47.875 41.3125 47.875C43.2525 47.875 44.8569 48.6548 45.0469 50.2148C45.2849 52.1608 43.6298 52.5508 43.0078 52.5508C42.4638 52.5508 41.5912 52.3966 41.5312 51.8906C41.4653 51.3446 42.7048 51.6562 42.5508 50.4102C42.4548 49.6322 41.6471 49.3594 40.8711 49.3594C38.0791 49.3594 36.536 53.2539 36.832 55.6719C36.966 56.7639 37.5272 57.8516 38.5352 57.8516C39.3492 57.8516 40.5207 56.6827 40.9727 54.9688C41.2587 53.8008 42.3656 53.0234 43.1836 53.0234C43.6096 53.0234 43.905 53.2184 43.957 53.6484C43.975 53.8044 43.9602 53.9985 43.9102 54.2305C43.8162 54.7365 43.4292 56.4254 43.4492 56.7734C43.4632 57.0774 43.6361 57.4922 44.1641 57.4922C44.5821 57.4922 46.1229 56.6647 47.5469 55.3867C47.9949 53.0747 48.5458 50.2143 48.5898 49.9883C48.7638 49.0503 49.1019 48.0859 51.0039 48.0859C51.3939 48.0859 51.6862 48.2781 51.7422 48.7461C51.7602 48.9001 51.7453 49.1 51.6953 49.332L51.1641 51.7344C52.8301 49.5124 55.4246 47.8828 56.9766 47.8828C57.6366 47.8828 58.1445 48.2316 58.2305 48.9336C58.2785 49.3236 58.1642 49.9827 57.9062 50.7227C57.3543 52.2407 56.7323 54.5243 56.3203 56.4883C56.2323 56.9063 56.3786 57.5352 57.1406 57.5352C57.7506 57.5352 59.7091 56.7911 61.2891 54.7031C61.2791 54.4071 61.2734 54.1087 61.2734 53.8047C61.2734 52.1687 61.3892 50.8431 61.6992 49.8711C62.0092 48.8571 63.2906 47.8867 64.1406 47.8867C64.5686 47.8867 64.8789 48.1199 64.8789 48.5859C64.8789 48.7419 64.8397 48.9388 64.7617 49.1328C64.1817 50.8468 63.8711 52.4431 63.8711 54.0391C63.8711 54.9351 64.0657 56.3792 64.2617 57.1172C64.2997 57.2732 64.3382 57.4297 64.4922 57.4297C64.7642 57.4297 66.5843 55.6351 67.9023 53.4531C66.7363 52.7131 66.0781 51.3498 66.0781 49.6758C66.0781 46.8718 67.747 45.4297 69.375 45.4297C70.655 45.4297 71.8164 46.3644 71.8164 48.2344C71.8164 49.4044 71.3513 50.7277 70.6953 52.0117C70.6953 52.0117 70.9679 52.0508 71.0859 52.0508C72.0939 52.0508 72.8689 51.5822 73.2969 51.0742C73.4909 50.8542 73.6717 50.682 73.8438 50.582C75.1417 49.014 77.0453 47.8789 79.2773 47.8789C81.1773 47.8789 82.8178 48.6217 83.0078 50.1797C83.2498 52.1657 81.5547 52.5547 80.9727 52.5547C80.3927 52.5547 79.519 52.3966 79.457 51.8906C79.395 51.3846 80.6675 51.6591 80.5195 50.4531C80.4235 49.6731 79.6119 49.3594 78.8359 49.3594C76.2359 49.3594 74.449 52.8269 74.793 55.6289C74.931 56.7589 75.4529 57.8516 76.4609 57.8516C77.2749 57.8516 78.4934 56.6808 78.9414 54.9688C79.2294 53.8388 80.3285 53.0234 81.1445 53.0234C81.5325 53.0234 81.8698 53.2195 81.9258 53.6875C81.9538 53.9215 81.8598 54.4278 81.4258 56.2578C81.2478 57.0358 81.2113 57.6962 81.2773 58.2422C81.4173 59.3722 81.9341 60.115 82.4141 60.543C82.5881 60.697 82.6891 60.8917 82.7031 61.0117C82.7431 61.3177 82.5091 61.5898 82.1211 61.5898C82.0051 61.5898 81.8507 61.5897 81.7227 61.5117C79.7247 60.6937 78.8942 59.331 78.6602 58.043C77.8902 59.017 76.8702 59.5586 75.8242 59.5586C74.0402 59.5586 72.2988 58.0006 72.0508 55.9766C71.9488 55.1446 72.0483 54.2491 72.3203 53.3711C71.5963 53.8191 70.8152 54.0664 70.1172 54.0664C69.8832 54.0664 69.6929 54.0692 69.4609 54.0312C67.7169 56.5612 65.8921 58.3138 64.4961 59.0938C63.9161 59.4058 63.3744 59.5625 62.9844 59.5625C62.6724 59.5625 62.3259 59.4829 62.1719 59.2109C61.8099 58.6029 61.5677 57.6455 61.4297 56.5195C59.5917 58.5335 57.0127 59.5508 55.8047 59.5508C54.4067 59.5508 53.6443 58.6923 53.4883 57.4062C53.4363 56.9142 53.4511 56.4197 53.5391 55.9297C54.0011 53.0477 55.0621 51.2569 54.9961 50.7109C54.9761 50.5549 54.8874 50.4766 54.7734 50.4766C53.8814 50.4766 50.7494 53.7096 50.2734 55.8516L49.9023 57.5664C49.6603 58.7744 48.4742 59.5508 47.6602 59.5508C47.2722 59.5508 46.9778 59.3597 46.9258 58.9297C46.9098 58.7337 46.9267 58.5358 46.9727 58.3438L47.1445 57.4414C45.4545 58.7054 43.6332 59.5586 42.7812 59.5586C41.6152 59.5586 40.9625 58.9321 40.7305 57.9961C39.9605 59.0101 38.9415 59.5586 37.8555 59.5586C36.4695 59.5586 35.1342 58.6432 34.4922 57.2852C33.5782 58.3112 32.4991 59.3126 31.2031 60.1406C29.2911 61.3506 27.1606 62.3242 24.6406 62.3242C22.3146 62.3242 20.3381 61.0784 19.2461 60.0664C17.6261 58.5484 16.7676 56.2887 16.5156 54.2227C15.7196 47.7187 19.6804 39.1872 25.8164 35.4492C27.2244 34.5912 28.8004 34.1641 30.2344 34.1641ZM68.4453 46.9336C67.9393 46.9336 67.7461 47.6348 67.7461 48.2188C67.7461 49.3108 68.2903 50.4417 68.9883 51.1797C69.2603 50.4397 69.4141 49.699 69.4141 48.957C69.4141 47.557 68.8713 46.9336 68.4453 46.9336Z" fill="black"/>
</svg>
