<svg width="90" height="90" viewBox="0 0 90 90" fill="none" xmlns="http://www.w3.org/2000/svg">
<path d="M74.121 23.379L57.621 6.879C57.057 6.315 56.295 6 55.5 6H21C17.685 6 15 8.685 15 12V78C15 81.315 17.685 84 21 84H69C72.315 84 75 81.315 75 78V25.5C75 24.705 74.685 23.943 74.121 23.379ZM51 69H30C28.344 69 27 67.656 27 66C27 64.344 28.344 63 30 63H51C52.656 63 54 64.344 54 66C54 67.656 52.656 69 51 69ZM60 57H30C28.344 57 27 55.656 27 54C27 52.344 28.344 51 30 51H60C61.656 51 63 52.344 63 54C63 55.656 61.656 57 60 57ZM60 45H30C28.344 45 27 43.656 27 42C27 40.344 28.344 39 30 39H60C61.656 39 63 40.344 63 42C63 43.656 61.656 45 60 45ZM57 27C55.344 27 54 25.656 54 24V11.712L69.288 27H57Z" fill="black"/>
</svg>
