<svg width="28" height="24" viewBox="0 0 28 24" fill="none" xmlns="http://www.w3.org/2000/svg">
<path d="M15.7931 16.5459C15.794 16.3895 15.7551 16.2356 15.6803 16.1001C15.6056 15.9646 15.4977 15.8524 15.3678 15.775H15.3803L12.8286 14.2C12.6984 14.1249 12.552 14.0854 12.4033 14.0854C12.2546 14.0854 12.1083 14.1249 11.978 14.2L9.42638 15.775C9.15609 15.9306 8.98862 16.2254 8.98862 16.5455V19.4284C8.98893 19.5862 9.02971 19.741 9.10672 19.8766C9.18373 20.0122 9.29413 20.1236 9.42638 20.1993L11.978 21.8891C12.1045 21.9618 12.2465 21.9999 12.3908 21.9999C12.5352 21.9999 12.6771 21.9618 12.8036 21.8891L15.3553 20.1993C15.6256 20.0438 15.7931 19.7486 15.7931 19.4284M15.7931 16.5459V19.4284M15.7931 16.5459C15.7931 16.2258 15.9609 15.9306 16.2312 15.775L18.7829 14.2C18.9131 14.1249 19.0594 14.0854 19.2081 14.0854C19.3569 14.0854 19.5032 14.1249 19.6334 14.2L22.1851 15.775H22.1726C22.3025 15.8524 22.4104 15.9646 22.4852 16.1001C22.5599 16.2356 22.5988 16.3895 22.5979 16.5459V19.4284C22.5979 19.7486 22.4304 20.0438 22.1601 20.1993L19.6085 21.8891C19.482 21.9618 19.34 21.9999 19.1957 21.9999C19.0513 21.9999 18.9094 21.9618 18.7829 21.8891L16.2312 20.1993C16.0989 20.1236 15.9885 20.0122 15.9115 19.8766C15.8345 19.741 15.7934 19.5862 15.7931 19.4284M12.391 10.5915C12.392 10.4351 12.3531 10.2812 12.2783 10.1457C12.2036 10.0102 12.0957 9.89799 11.9658 9.82064H11.9782L9.42657 8.24564C9.29633 8.17047 9.15003 8.13104 9.0013 8.13104C8.85257 8.13104 8.70626 8.17047 8.57602 8.24564L6.02435 9.82064C5.75407 9.97616 5.5866 10.271 5.5866 10.5911V13.474C5.58691 13.6318 5.62769 13.7866 5.7047 13.9222C5.78171 14.0578 5.89211 14.1692 6.02435 14.2449L8.57602 15.9347C8.70252 16.0074 8.84451 16.0455 8.98882 16.0455C9.13314 16.0455 9.27512 16.0074 9.40163 15.9347L11.9533 14.2449C12.2236 14.0894 12.391 13.7942 12.391 13.474M12.391 10.5915V13.474M12.391 10.5915C12.391 10.2714 12.5584 9.97616 12.8287 9.82064L15.3804 8.24564C15.5106 8.17047 15.6569 8.13104 15.8056 8.13104C15.9544 8.13104 16.1007 8.17047 16.2309 8.24564L18.7826 9.82064H18.7701C18.9 9.89799 19.0079 10.0102 19.0827 10.1457C19.1574 10.2812 19.1963 10.4351 19.1954 10.5915M12.391 13.474C12.3913 13.6318 12.432 13.7866 12.5091 13.9222C12.5861 14.0578 12.6965 14.1692 12.8287 14.2449L15.3804 15.9347C15.5069 16.0074 15.6489 16.0455 15.7932 16.0455C15.9375 16.0455 16.0795 16.0074 16.206 15.9347L18.7576 14.2449C19.0279 14.0894 19.1954 13.7942 19.1954 13.474M19.1954 10.5915V13.474M19.1954 10.5915C19.1954 10.2714 19.3631 9.97616 19.6334 9.82064L22.185 8.24564C22.3153 8.17047 22.4616 8.13104 22.6103 8.13104C22.759 8.13104 22.9053 8.17047 23.0356 8.24564L25.5872 9.82064H25.5748C25.7047 9.89799 25.8126 10.0102 25.8873 10.1457C25.9621 10.2812 26.001 10.4351 26.0001 10.5915V13.474C26.0001 13.7942 25.8326 14.0894 25.5623 14.2449L23.0106 15.9347C22.8841 16.0074 22.7421 16.0455 22.5978 16.0455C22.4535 16.0455 22.3115 16.0074 22.185 15.9347L19.6334 14.2449C19.5011 14.1692 19.3907 14.0578 19.3137 13.9222C19.2367 13.7866 19.1957 13.6318 19.1954 13.474M15.3678 3.68978C15.4977 3.76713 15.6056 3.87933 15.6803 4.01482C15.7551 4.15031 15.794 4.3042 15.7931 4.46066V7.34315C15.7931 7.6633 15.6256 7.95851 15.3553 8.11403L12.8036 9.80379C12.6771 9.8765 12.5352 9.91462 12.3908 9.91462C12.2465 9.91462 12.1045 9.8765 11.978 9.80379L9.42638 8.11403C9.29413 8.03838 9.18373 7.92692 9.10672 7.7913C9.02971 7.65569 8.98893 7.50091 8.98862 7.34315V4.46027C8.98862 4.14012 9.15609 3.8453 9.42638 3.68978L11.978 2.11478C12.1083 2.03961 12.2546 2.00018 12.4033 2.00018C12.552 2.00018 12.6984 2.03961 12.8286 2.11478L15.3803 3.68978H15.3678ZM8.37916 3.68978C8.50908 3.76713 8.61697 3.87933 8.69172 4.01482C8.76647 4.15031 8.80537 4.3042 8.80444 4.46066V7.34315C8.80444 7.6633 8.63697 7.95851 8.36669 8.11403L5.81502 9.80379C5.68852 9.8765 5.54654 9.91462 5.40222 9.91462C5.2579 9.91462 5.11592 9.8765 4.98942 9.80379L2.43775 8.11403C2.30551 8.03838 2.19511 7.92692 2.1181 7.7913C2.04109 7.65569 2.0003 7.50091 2 7.34315V4.46027C2 4.14012 2.16746 3.8453 2.43775 3.68978L4.98942 2.11478C5.11966 2.03961 5.26597 2.00018 5.41469 2.00018C5.56342 2.00018 5.70973 2.03961 5.83997 2.11478L8.39164 3.68978H8.37916Z" stroke="black" stroke-width="2" stroke-linecap="round" stroke-linejoin="round"/>
</svg>
