<svg width="121" height="121" viewBox="0 0 121 121" fill="none" xmlns="http://www.w3.org/2000/svg">
<path d="M76.7967 44.2042C90.5857 58.0074 90.3964 80.1374 76.8798 93.7291C76.8528 93.7582 76.825 93.7867 76.7967 93.8145L61.2876 109.323C47.6087 123.002 25.3539 123.001 11.6771 109.323C-2.00176 95.6469 -2.00176 73.3898 11.6771 59.7133L20.2407 51.1497C22.5116 48.8788 26.4226 50.388 26.5398 53.5973C26.6894 57.6875 27.4227 61.7965 28.7762 65.7647C29.2344 67.1084 28.9071 68.5947 27.9032 69.5986L24.8829 72.6189C18.4149 79.087 18.2119 89.6187 24.6163 96.1501C31.0839 102.746 41.7147 102.785 48.2319 96.2678L63.7409 80.7611C70.2471 74.255 70.2199 63.7389 63.7409 57.2599C62.8868 56.4075 62.0264 55.7451 61.3543 55.2823C60.8788 54.9559 60.4862 54.5228 60.2079 54.0176C59.9295 53.5125 59.7731 52.9492 59.751 52.3729C59.6596 49.9342 60.5238 47.4211 62.4508 45.4941L67.31 40.635C68.5843 39.3607 70.5831 39.2042 72.0606 40.2356C73.7526 41.4171 75.3374 42.7451 76.7967 44.2042Z" fill="black"/>
<path d="M109.323 11.6764C95.6462 -2.00058 73.3914 -2.00247 59.7125 11.6764L44.2035 27.1855C44.1759 27.2131 44.1458 27.2431 44.1203 27.2708C30.604 40.8625 30.4145 62.9925 44.2035 76.7957C45.6628 78.2549 47.2475 79.5829 48.9395 80.7644C50.417 81.7955 52.4161 81.6388 53.6902 80.365L58.5493 75.5058C60.4763 73.5788 61.3406 71.0657 61.2491 68.627C61.2271 68.0507 61.0706 67.4875 60.7923 66.9824C60.5139 66.4773 60.1213 66.0443 59.6459 65.7178C58.9738 65.2551 58.1135 64.5927 57.2592 63.7402C50.7803 57.2613 50.7531 46.7452 57.2592 40.2391L72.7682 24.7324C79.2855 18.2152 89.916 18.2544 96.3838 24.8501C102.788 31.3815 102.586 41.9132 96.1172 48.3813L93.097 51.4015C92.093 52.4055 91.7655 53.8917 92.224 55.2355C93.5774 59.2037 94.3107 63.313 94.4603 67.4029C94.5778 70.6122 98.4885 72.1216 100.759 69.8505L109.323 61.2869C123.002 47.6101 123.002 25.353 109.323 11.6764Z" fill="black"/>
</svg>
