<svg width="147" height="41" viewBox="0 0 147 41" fill="none" xmlns="http://www.w3.org/2000/svg">
<path fill-rule="evenodd" clip-rule="evenodd" d="M2 1.15527V14.8906L13.8574 8.04492L27.7139 16.0449V32.0449L13.8574 40.0449L0.000976562 32.0449L0 0L2 1.15527ZM2.00098 17.1992V30.8896L13.8574 37.7344L25.7139 30.8896V17.1992L13.8574 10.3545L2.00098 17.1992Z" fill="#F7C41D"/>
<path d="M57.4268 16.0449V17.1924L46.0801 23.7441L46.082 23.748L44.0703 24.9111L43.0703 23.1787L54.4268 16.6211L43.5703 10.3545L31.7139 17.1992V30.8896L43.5703 37.7344L55.4258 30.8896L57.4268 32.0449L43.5703 40.0449L29.7139 32.0449V16.0449L43.5703 8.04492L57.4268 16.0449Z" fill="#F7C41D"/>
<path d="M87.1396 16.0449V17.1924L75.793 23.7441L75.7949 23.748L73.7832 24.9111L72.7832 23.1787L84.1396 16.6211L73.2832 10.3545L61.4268 17.1992V30.8896L73.2832 37.7344L85.1387 30.8896L87.1396 32.0449L73.2832 40.0449L59.4268 32.0449V16.0449L73.2832 8.04492L87.1396 16.0449Z" fill="#F7C41D"/>
<path d="M116.853 16.0449V17.1973L92.1387 31.4668L102.996 37.7344L116.853 29.7344V32.0449L102.996 40.0449L89.1396 32.0449V30.8916L107.729 20.1592L107.728 20.1562L113.853 16.6211L102.996 10.3545L91.1396 17.1992V17.2139L89.1396 18.3682V16.0449L102.996 8.04492L116.853 16.0449Z" fill="#F7C41D"/>
<path d="M146.565 32.0449L132.709 40.0449L118.853 32.0449V16.0518L120.853 17.207V30.8896L132.709 37.7344L144.565 30.8896V17.2051L146.565 16.0498V32.0449Z" fill="#F7C41D"/>
</svg>
