<svg width="19" height="21" viewBox="0 0 19 21" fill="none" xmlns="http://www.w3.org/2000/svg">
<path d="M16.9375 5.05618C17.2621 5.24187 17.5316 5.51121 17.7183 5.83648C17.9051 6.16175 18.0023 6.53121 18 6.90681V13.8267C18 14.5953 17.5816 15.304 16.9063 15.6774L10.5313 19.7339C10.2153 19.9085 9.86053 20 9.49998 20C9.13943 20 8.7847 19.9085 8.46865 19.7339L2.09366 15.6774C1.76327 15.4957 1.48745 15.2282 1.29505 14.9026C1.10266 14.577 1.00076 14.2055 1 13.8267V6.90586C1 6.1373 1.41839 5.42954 2.09366 5.05618L8.46865 1.27511C8.79404 1.09465 9.15957 1 9.53115 1C9.90272 1 10.2682 1.09465 10.5936 1.27511L16.9686 5.05618H16.9375Z" stroke="black" stroke-width="2" stroke-linecap="round" stroke-linejoin="round"/>
</svg>
